<svg width="24" height="24" viewBox="0 0 24 24" fill="none" xmlns="http://www.w3.org/2000/svg">
<path d="M18 5.33331H5.99996C5.26358 5.33331 4.66663 5.93027 4.66663 6.66665C4.66663 7.40303 5.26358 7.99998 5.99996 7.99998H18C18.7363 7.99998 19.3333 7.40303 19.3333 6.66665C19.3333 5.93027 18.7363 5.33331 18 5.33331Z" fill="black"/>
<path d="M18 16H5.99996C5.26358 16 4.66663 16.597 4.66663 17.3333C4.66663 18.0697 5.26358 18.6667 5.99996 18.6667H18C18.7363 18.6667 19.3333 18.0697 19.3333 17.3333C19.3333 16.597 18.7363 16 18 16Z" fill="black"/>
<path d="M18 10.6667H5.99996C5.26358 10.6667 4.66663 11.2636 4.66663 12C4.66663 12.7364 5.26358 13.3334 5.99996 13.3334H18C18.7363 13.3334 19.3333 12.7364 19.3333 12C19.3333 11.2636 18.7363 10.6667 18 10.6667Z" fill="black"/>
</svg>
