<svg width="24" height="24" viewBox="0 0 24 24" fill="none" xmlns="http://www.w3.org/2000/svg">
<path d="M12 10.4C12.88 10.4 13.6 9.68 13.6 8.8V5.6C13.6 4.72 12.88 4 12 4C11.12 4 10.4 4.72 10.4 5.6V8.8C10.4 9.68 11.12 10.4 12 10.4Z" fill="black"/>
<path d="M17.68 6.32C17.44 6.08 17.2 6 16.8 6C16.16 6 15.6 6.56 15.6 7.2C15.6 7.52 15.76 7.84 15.92 8.08C16.96 9.12 17.52 10.48 17.52 12C17.52 15.12 15.04 17.6 11.92 17.6C8.8 17.6 6.32 15.12 6.32 12C6.32 10.48 6.96 9.04 8 8.08C8.24 7.84 8.4 7.52 8.4 7.2C8.4 6.56 7.84 6 7.2 6C6.88 6 6.56 6.16 6.32 6.32C4.88 7.76 4 9.76 4 12C4 16.4 7.6 20 12 20C16.4 20 20 16.4 20 12C20 9.76 19.12 7.76 17.68 6.32Z" fill="black"/>
</svg>
