<svg width="60" height="60" viewBox="0 0 60 60" fill="none" xmlns="http://www.w3.org/2000/svg">
<path d="M45.3036 45.1329V14.8646L41.5356 13.0864L37.7555 14.8646L33.9888 13.0864L30.2074 14.8646L26.4406 13.0864L22.6593 14.8646L18.8791 13.0864L15.0989 14.8646V45.1329L18.8669 46.9111L22.647 45.1329L26.4138 46.9111L30.1952 45.1329L33.9619 46.9111L37.7433 45.1329L41.5234 46.9111L45.3036 45.1329Z" fill="#CCECFF"/>
<path d="M45.7761 13.8826L42.0081 12.1056C41.709 11.9654 41.3622 11.9642 41.0643 12.1056L37.7567 13.6615L34.4624 12.1056C34.1633 11.9654 33.8165 11.9642 33.5174 12.1056L30.2098 13.6615L26.9143 12.1056C26.6152 11.9654 26.2684 11.9642 25.9705 12.1056L22.6616 13.6615L19.3528 12.1056C19.0549 11.9654 18.7081 11.9654 18.4102 12.1056L14.6276 13.8826C14.2442 14.0625 14 14.4455 14 14.8647V45.1341C14 45.5533 14.243 45.935 14.6264 46.1162L18.3943 47.8945C18.6935 48.0346 19.0402 48.0358 19.3381 47.8945L22.6458 46.3385L25.94 47.8945C26.2391 48.0346 26.5859 48.0358 26.885 47.8945L30.1927 46.3385L33.4881 47.8945C33.7872 48.0346 34.134 48.0358 34.4319 47.8945L37.7408 46.3385L41.0496 47.8945C41.1986 47.9645 41.3598 47.9995 41.5209 47.9995C41.6821 47.9995 41.8433 47.9645 41.9922 47.8945L45.7724 46.1162C46.1558 45.9362 46.4 45.5533 46.4 45.1341V14.8647C46.4024 14.4455 46.1595 14.0638 45.7761 13.8826ZM44.2047 44.4455L41.5234 45.7067L38.2145 44.1508C38.0656 44.0807 37.9044 44.0457 37.7432 44.0457C37.582 44.0457 37.4209 44.0807 37.2719 44.1508L33.9643 45.7067L30.6688 44.1508C30.3697 44.0107 30.0229 44.0094 29.725 44.1508L26.4174 45.7067L23.1232 44.1508C22.824 44.0107 22.4773 44.0094 22.1781 44.1508L18.8705 45.7067L16.1978 44.4468V15.552L18.879 14.2909L22.1879 15.8468C22.4858 15.9869 22.8326 15.9869 23.1305 15.8468L26.4381 14.2909L29.7336 15.8468C30.0327 15.9869 30.3795 15.9881 30.6774 15.8468L33.985 14.2909L37.2792 15.8468C37.5784 15.9869 37.9251 15.9881 38.2243 15.8468L41.5319 14.2909L44.2022 15.5508V44.4455H44.2047Z" fill="black"/>
<path d="M34.4746 34.6183H21.3259C20.719 34.6183 20.227 35.1051 20.227 35.7055C20.227 36.3059 20.719 36.7927 21.3259 36.7927H34.4746C35.0815 36.7927 35.5735 36.3059 35.5735 35.7055C35.5735 35.1051 35.0815 34.6183 34.4746 34.6183Z" fill="black"/>
<path d="M26.9204 38.4247H21.3247C20.7179 38.4247 20.2258 38.9116 20.2258 39.512C20.2258 40.1124 20.7179 40.5992 21.3247 40.5992H26.9192C27.5261 40.5992 28.0181 40.1124 28.0181 39.512C28.0181 38.9116 27.5273 38.4247 26.9204 38.4247Z" fill="black"/>
<path d="M29.824 26.7202C31.1414 27.0174 31.4821 27.3737 31.4772 27.5199C31.4552 28.351 29.3612 28.4586 29.0658 28.4694C29.0304 27.8872 28.4858 27.4281 27.9437 27.4233C27.3466 27.4366 26.8692 27.8956 26.8692 28.4863C26.8692 29.0771 27.1049 29.6279 27.5347 30.0374C27.9205 30.4059 28.437 30.6149 28.9705 30.6354V30.8335C28.9705 31.4339 29.4626 31.9207 30.0694 31.9207C30.6762 31.9207 31.1683 31.4339 31.1683 30.8335V30.3455C33.3355 29.7173 33.6554 28.2749 33.675 27.5779C33.7128 26.1138 32.581 25.1123 30.3112 24.6013C28.7239 24.2438 28.6677 23.8681 28.6726 23.7956C28.7263 23.0152 30.382 22.8751 31.0682 22.8352C31.0682 23.4356 31.5602 23.9224 32.1671 23.9224C32.7739 23.9224 33.2659 23.4356 33.2659 22.8352C33.2659 22.2517 33.023 21.6852 32.5993 21.2793C32.2086 20.9072 31.7092 20.703 31.1695 20.6873V20.4856C31.1695 19.8852 30.6775 19.3984 30.0706 19.3984C29.4638 19.3984 28.9718 19.8852 28.9718 20.4856V20.9761C26.9767 21.5535 26.5371 22.8231 26.4797 23.6482C26.3772 25.1643 27.5017 26.1983 29.824 26.7202Z" fill="black"/>
</svg>
