<svg width="32" height="32" viewBox="0 0 32 32" fill="none" xmlns="http://www.w3.org/2000/svg">
<path d="M5.6 32H26.4C29.4928 32 32 29.4928 32 26.4L32 5.6C32 2.50721 29.4928 0 26.4 0L5.6 0C2.50721 0 0 2.50721 0 5.6V26.4C0 29.4928 2.50721 32 5.6 32Z" fill="#00CF2E"/>
<path d="M28.2 14.2C28.2 9.8 23 5 16.2 5C9.57495 5 4.19995 8.9 4.19995 14.2C4.19995 19.09 8.38995 23.13 14.285 23.725C14.4645 23.7398 14.6384 23.7952 14.7934 23.887C14.9485 23.9788 15.0806 24.1047 15.18 24.255C15.3216 24.4778 15.3978 24.736 15.4 25C15.3862 25.5425 15.326 26.0828 15.22 26.615C15.2036 26.6871 15.2076 26.7624 15.2315 26.8324C15.2553 26.9024 15.2981 26.9644 15.3551 27.0115C15.4121 27.0587 15.481 27.0891 15.5543 27.0994C15.6275 27.1097 15.7022 27.0996 15.77 27.07C18.595 25.82 28.2 20.68 28.2 14.2Z" fill="white"/>
<path d="M11.8 16.4H10V12.2C10 12.0408 9.93684 11.8882 9.82431 11.7757C9.71179 11.6632 9.55918 11.6 9.40005 11.6C9.24092 11.6 9.08831 11.6632 8.97578 11.7757C8.86326 11.8882 8.80005 12.0408 8.80005 12.2V17C8.80005 17.1591 8.86326 17.3117 8.97578 17.4242C9.08831 17.5368 9.24092 17.6 9.40005 17.6H11.8C11.9592 17.6 12.1118 17.5368 12.2243 17.4242C12.3368 17.3117 12.4 17.1591 12.4 17C12.4 16.8408 12.3368 16.6882 12.2243 16.5757C12.1118 16.4632 11.9592 16.4 11.8 16.4Z" fill="#00CF2E"/>
<path d="M13.4 11.6C13.2409 11.6 13.0883 11.6632 12.9758 11.7757C12.8633 11.8882 12.8 12.0408 12.8 12.2V17C12.8 17.1591 12.8633 17.3117 12.9758 17.4242C13.0883 17.5368 13.2409 17.6 13.4 17.6C13.5592 17.6 13.7118 17.5368 13.8243 17.4242C13.9368 17.3117 14 17.1591 14 17V12.2C14 12.0408 13.9368 11.8882 13.8243 11.7757C13.7118 11.6632 13.5592 11.6 13.4 11.6Z" fill="#00CF2E"/>
<path d="M18.9999 11.6C18.9212 11.6 18.8431 11.6155 18.7703 11.6456C18.6975 11.6758 18.6314 11.72 18.5757 11.7757C18.52 11.8314 18.4758 11.8976 18.4456 11.9704C18.4155 12.0432 18.3999 12.1212 18.3999 12.2V15.2L15.8999 11.84C15.8244 11.7392 15.719 11.6648 15.5988 11.6273C15.4786 11.5897 15.3497 11.5909 15.2302 11.6308C15.1107 11.6706 15.0068 11.747 14.9332 11.8491C14.8596 11.9513 14.8199 12.074 14.8199 12.2V17C14.8454 17.1378 14.9184 17.2624 15.0262 17.3521C15.134 17.4418 15.2697 17.4909 15.4099 17.4909C15.5502 17.4909 15.6859 17.4418 15.7937 17.3521C15.9015 17.2624 15.9745 17.1378 15.9999 17V14L18.4999 17.36C18.5575 17.4376 18.6332 17.5 18.7203 17.5418C18.8074 17.5836 18.9034 17.6036 18.9999 17.6C19.0644 17.5998 19.1285 17.5896 19.1899 17.57C19.3095 17.5301 19.4134 17.4535 19.487 17.3512C19.5606 17.2489 19.6001 17.126 19.5999 17V12.2C19.5999 12.1212 19.5844 12.0432 19.5543 11.9704C19.5241 11.8976 19.4799 11.8314 19.4242 11.7757C19.3685 11.72 19.3024 11.6758 19.2296 11.6456C19.1568 11.6155 19.0787 11.6 18.9999 11.6Z" fill="#00CF2E"/>
<path d="M23.4 15.2C23.4788 15.2 23.5568 15.1845 23.6296 15.1543C23.7024 15.1241 23.7686 15.08 23.8243 15.0242C23.88 14.9685 23.9242 14.9024 23.9544 14.8296C23.9845 14.7568 24 14.6788 24 14.6C24 14.5212 23.9845 14.4432 23.9544 14.3704C23.9242 14.2976 23.88 14.2314 23.8243 14.1757C23.7686 14.12 23.7024 14.0758 23.6296 14.0456C23.5568 14.0155 23.4788 14 23.4 14H21.6V12.8H23.4C23.5592 12.8 23.7118 12.7368 23.8243 12.6242C23.9368 12.5117 24 12.3591 24 12.2C24 12.0408 23.9368 11.8882 23.8243 11.7757C23.7118 11.6632 23.5592 11.6 23.4 11.6H21C20.8409 11.6 20.6883 11.6632 20.5758 11.7757C20.4632 11.8882 20.4 12.0408 20.4 12.2V17C20.4 17.1591 20.4632 17.3117 20.5758 17.4242C20.6883 17.5368 20.8409 17.6 21 17.6H23.4C23.5592 17.6 23.7118 17.5368 23.8243 17.4242C23.9368 17.3117 24 17.1591 24 17C24 16.8408 23.9368 16.6882 23.8243 16.5757C23.7118 16.4632 23.5592 16.4 23.4 16.4H21.6V15.2H23.4Z" fill="#00CF2E"/>
</svg>
