<svg width="60" height="60" viewBox="0 0 60 60" fill="none" xmlns="http://www.w3.org/2000/svg">
<path d="M43.1526 39.1839C41.8596 45.4683 36.2984 46.8345 29.7854 46.8345C23.2723 46.8345 17.7111 45.4683 16.4181 39.1839C14.816 31.3921 20.3161 20.8148 29.7854 20.8148C39.2547 20.8148 44.7548 31.3921 43.1526 39.1839Z" fill="#CCECFF"/>
<path d="M40.6062 25.0908C39.6136 23.8476 38.4848 22.8117 37.2618 21.9803H37.2746C39.6416 21.9803 41.5695 20.0197 41.5695 17.6098C41.5695 16.9662 41.0567 16.4443 40.4242 16.4443C39.7917 16.4443 39.2789 16.9662 39.2789 17.6098C39.2789 18.7351 38.3804 19.6494 37.2758 19.6494H35.3619C36.6523 18.2858 37.4514 16.4365 37.4514 14.3983V14.1781C37.4514 12.9777 36.4906 12 35.311 12H24.2624C23.0814 12 22.1219 12.9764 22.1219 14.1781V14.3983C22.1219 16.8963 23.3207 19.1106 25.1583 20.4924C22.8104 21.3742 20.689 22.9308 18.9646 25.0908C15.7692 29.0935 14.3299 34.7188 15.297 39.4222C16.8789 47.1104 24.3235 48 29.7854 48C35.2473 48 42.6932 47.1104 44.2738 39.4222C45.2422 34.7188 43.8029 29.0935 40.6062 25.0908ZM29.5729 19.6494C26.7274 19.6494 24.4126 17.2938 24.4126 14.3983V14.3309H35.1582V14.3983C35.1582 17.2938 32.8447 19.6494 29.9992 19.6494H29.5729ZM42.0315 38.9443C41.0618 43.658 37.3993 45.6691 29.7854 45.6691C22.1715 45.6691 18.509 43.658 17.5393 38.9443C16.7071 34.9001 17.9644 30.0401 20.7424 26.5606C23.1005 23.6068 26.3112 21.9803 29.7854 21.9803C33.2583 21.9803 36.4716 23.6068 38.8284 26.5606C41.6064 30.0401 42.8625 34.9014 42.0315 38.9443Z" fill="black"/>
<path d="M30.0323 32.6897C28.4466 32.3219 28.4263 31.9516 28.4288 31.9101C28.481 31.1241 30.2601 30.9998 30.7348 30.9169C30.7348 31.5605 31.2476 32.0824 31.8801 32.0824C32.5126 32.0824 33.0254 31.5605 33.0254 30.9169C33.0254 30.3044 32.7772 29.7087 32.3433 29.2826C31.9539 28.9006 31.4627 28.6921 30.9269 28.6637V28.5005C30.9269 27.8569 30.4141 27.335 29.7816 27.335C29.1491 27.335 28.6363 27.8569 28.6363 28.5005V28.9693C26.6408 29.5753 26.2005 30.8936 26.1433 31.7508C26.0376 33.3372 27.1753 34.4172 29.5245 34.9611C30.8544 35.2693 31.1471 35.6344 31.1445 35.738C31.1229 36.5422 29.1109 36.6562 28.8221 36.6834C28.7966 36.0631 28.2939 35.5671 27.678 35.5671C27.0455 35.5671 26.5327 36.089 26.5327 36.7326C26.5327 37.3529 26.7732 37.9304 27.2122 38.3616C27.5953 38.7385 28.1069 38.9547 28.6363 38.9871V39.149C28.6363 39.7926 29.1491 40.3144 29.7816 40.3144C30.4141 40.3144 30.9269 39.7926 30.9269 39.149V38.6802C33.0928 38.0211 33.4161 36.5241 33.4339 35.7989C33.4721 34.267 32.3293 33.2206 30.0323 32.6897Z" fill="black"/>
</svg>
