<svg width="60" height="60" viewBox="0 0 60 60" fill="none" xmlns="http://www.w3.org/2000/svg">
<path d="M26.7593 40.4291C34.3094 40.4291 40.43 34.3087 40.43 26.7589C40.43 19.209 34.3094 13.0887 26.7593 13.0887C19.2092 13.0887 13.0886 19.209 13.0886 26.7589C13.0886 34.3087 19.2092 40.4291 26.7593 40.4291Z" fill="white"/>
<path d="M36.4269 17.088C40.801 21.4619 41.596 28.0662 38.794 33.2436C38.179 34.3878 37.3924 35.4656 36.4269 36.431C35.4615 37.3964 34.3934 38.1733 33.2491 38.7895C28.0716 41.5914 21.467 40.7976 17.093 36.4225C11.7535 31.0832 11.7535 22.437 17.093 17.0965C22.4324 11.756 31.0863 11.7487 36.4269 17.088Z" fill="#CCECFF"/>
<path d="M26.9902 25.698C25.4496 25.3464 24.6872 24.9053 24.7222 24.3858C24.8019 23.2138 26.8222 22.9685 28.0184 22.9262C28.0982 22.9286 28.167 22.9637 28.2021 22.9975C28.2323 23.0265 28.2843 23.0918 28.2843 23.1908C28.2843 23.7913 28.7712 24.2783 29.3717 24.2783C29.9722 24.2783 30.4592 23.7913 30.4592 23.1908C30.4592 22.5323 30.1873 21.8907 29.7137 21.4328C29.2352 20.9713 28.5948 20.7236 27.9435 20.7526C27.9073 20.7538 27.8758 20.7574 27.8408 20.7586V20.2258C27.8408 19.6253 27.3539 19.1383 26.7533 19.1383C26.1528 19.1383 25.6659 19.6253 25.6659 20.2258V21.0607C23.1587 21.7168 22.621 23.2512 22.5533 24.2372C22.3745 26.8772 25.4858 27.5853 26.5081 27.8185C27.9749 28.1519 28.8087 28.6244 28.7954 29.1149C28.7627 30.3787 26.2616 30.5648 25.4967 30.5914C25.3928 30.5999 25.3263 30.5455 25.2949 30.5153C25.2587 30.4802 25.2152 30.4186 25.2152 30.3268C25.2152 29.7263 24.7282 29.2406 24.1277 29.2406C23.5272 29.2406 23.0402 29.7275 23.0402 30.328C23.0402 30.995 23.3049 31.6172 23.7846 32.08C24.2449 32.5246 24.8454 32.7663 25.4834 32.7663C25.5136 32.7663 25.5438 32.7663 25.5728 32.7651C25.6055 32.7638 25.6332 32.7602 25.6659 32.759V33.2906C25.6659 33.8911 26.1528 34.3781 26.7533 34.3781C27.3539 34.3781 27.8408 33.8911 27.8408 33.2906V32.4606C30.5619 31.7489 30.9485 30.0054 30.9703 29.1729C31.0138 27.4777 29.675 26.3081 26.9902 25.698Z" fill="black"/>
<path d="M46.5331 39.4455L40.105 33.0176C42.663 27.5503 41.7036 20.8311 37.1954 16.3231C34.4067 13.5357 30.7008 12 26.7581 12C22.8155 12 19.1096 13.5357 16.3233 16.3231C13.5357 19.1106 12 22.8163 12 26.7576C12 30.699 13.5357 34.4059 16.3233 37.1921C19.1108 39.9796 22.8167 41.5153 26.7581 41.5153C28.9621 41.5153 31.0863 41.0187 33.0232 40.1077L39.4453 46.5295C40.4264 47.5107 41.7132 48 42.9977 48C44.2784 48 45.5568 47.5143 46.5307 46.5404C48.4894 44.5855 48.4894 41.4029 46.5331 39.4455ZM17.8614 35.6552C15.4847 33.2786 14.1761 30.1178 14.1761 26.7576C14.1761 23.3963 15.4847 20.2367 17.8614 17.86C20.2382 15.4834 23.3979 14.1749 26.7593 14.1749C30.1196 14.1749 33.2793 15.4834 35.656 17.86C40.5629 22.7656 40.5629 30.7485 35.656 35.6552C33.2793 38.0319 30.1196 39.3404 26.7593 39.3404C23.3979 39.3404 20.237 38.0319 17.8614 35.6552ZM44.9938 45.0047C43.8906 46.1091 42.0926 46.1006 40.9858 44.9939L34.9963 39.0045C35.7769 38.4777 36.5139 37.8736 37.1942 37.1934C37.8805 36.5071 38.4786 35.7676 39.0006 34.9919L44.9938 40.9849C46.103 42.0916 46.103 43.8968 44.9938 45.0047Z" fill="black"/>
</svg>
