<svg width="60" height="60" viewBox="0 0 60 60" fill="none" xmlns="http://www.w3.org/2000/svg">
<path d="M29.6658 39.3685C34.8798 39.3685 39.1065 35.1741 39.1065 30C39.1065 24.8259 34.8798 20.6315 29.6658 20.6315C24.4519 20.6315 20.2252 24.8259 20.2252 30C20.2252 35.1741 24.4519 39.3685 29.6658 39.3685Z" fill="#CCECFF"/>
<path d="M29.3919 31.1701C30.5307 31.4273 30.7482 31.7125 30.7576 31.7125C30.7455 32.0883 29.8525 32.3281 28.9165 32.3854C28.8117 31.8284 28.3202 31.4073 27.728 31.4073C27.0606 31.4073 26.5194 31.9443 26.5194 32.6067C26.5194 33.205 26.7584 33.7621 27.1908 34.1778C27.5333 34.507 27.9818 34.7069 28.4518 34.7669V34.7709C28.4518 35.4332 28.993 35.9702 29.6605 35.9702C30.3279 35.9702 30.8691 35.4332 30.8691 34.7709V34.4644C32.8539 33.83 33.1547 32.4481 33.1722 31.7724C33.199 30.7703 32.6565 29.4456 29.9264 28.83C28.7634 28.5674 28.5821 28.3102 28.5727 28.2929C28.6009 27.8691 29.5329 27.6679 30.3991 27.6146C30.5038 28.1716 30.9953 28.5927 31.5875 28.5927C32.255 28.5927 32.7962 28.0557 32.7962 27.3934C32.7962 26.803 32.5491 26.2273 32.122 25.8182C31.7742 25.4864 31.331 25.2931 30.8677 25.2332V25.2278C30.8677 24.5655 30.3265 24.0284 29.6591 24.0284C28.9917 24.0284 28.4505 24.5655 28.4505 25.2278V25.5383C26.6295 26.1207 26.2145 27.3347 26.1595 28.1303C26.0588 29.6389 27.1452 30.6623 29.3919 31.1701Z" fill="black"/>
<path d="M29.6658 40.5678C35.537 40.5678 40.3151 35.8276 40.3151 30C40.3151 24.1723 35.537 19.4321 29.6658 19.4321C23.7933 19.4321 19.0165 24.1723 19.0165 30C19.0165 35.8276 23.7933 40.5678 29.6658 40.5678ZM29.6658 21.8309C34.2049 21.8309 37.8965 25.4957 37.8965 30C37.8965 34.5043 34.2049 38.1691 29.6658 38.1691C25.1268 38.1691 21.4338 34.5043 21.4338 30C21.4338 25.4957 25.1268 21.8309 29.6658 21.8309Z" fill="black"/>
<path d="M46.3797 32.8839C45.7338 32.7279 45.0771 33.1197 44.9186 33.7634C44.2418 36.5047 42.8129 39.018 40.7825 41.033C37.8133 43.9781 33.8665 45.6013 29.6658 45.6013C25.4652 45.6013 21.517 43.9781 18.5492 41.0316C17.393 39.8842 16.4422 38.5902 15.7063 37.1763L17.5528 37.8186C18.1826 38.0385 18.8728 37.7094 19.0931 37.0844C19.3147 36.4593 18.9816 35.7744 18.3531 35.5558L13.853 33.9913C13.5348 33.8794 13.187 33.906 12.8902 34.0619C12.5934 34.2178 12.3745 34.4884 12.2872 34.8109L11.0423 39.3792C10.8677 40.0188 11.2491 40.6772 11.8937 40.8504C11.9985 40.8784 12.1046 40.8917 12.208 40.8917C12.7398 40.8917 13.2286 40.5399 13.3736 40.0042L13.751 38.6209C14.5742 40.1188 15.6002 41.4994 16.8397 42.7281C20.2654 46.129 24.8193 48 29.6658 48C34.5111 48 39.0676 46.1277 42.4933 42.7281C44.8354 40.4026 46.4872 37.5001 47.2674 34.3324C47.4258 33.6901 47.0283 33.0411 46.3797 32.8839Z" fill="black"/>
<path d="M47.4393 19.151C46.7947 18.975 46.1299 19.3549 45.9567 19.9959L45.5793 21.3778C44.7561 19.8799 43.7302 18.4993 42.492 17.2706C39.0676 13.871 34.5111 12 29.6658 12C24.8193 12 20.2654 13.8724 16.8397 17.2719C14.4976 19.5961 12.8472 22.4986 12.0643 25.6662C11.9058 26.3099 12.302 26.9589 12.9506 27.1162C13.0473 27.1402 13.144 27.1508 13.2393 27.1508C13.7832 27.1508 14.2774 26.7843 14.413 26.2366C15.0899 23.494 16.5201 20.9807 18.5492 18.9657C21.517 16.0206 25.4652 14.3974 29.6658 14.3974C33.8665 14.3974 37.8133 16.0206 40.7825 18.9657C41.9387 20.1131 42.8881 21.4071 43.6254 22.8211L41.7789 22.1787C41.1477 21.9575 40.4602 22.2893 40.2386 22.913C40.0183 23.538 40.35 24.223 40.9799 24.4415L45.48 26.0061C45.6102 26.0514 45.7445 26.074 45.8802 26.074C46.0749 26.074 46.2683 26.0274 46.4442 25.9354C46.741 25.7795 46.9599 25.509 47.0471 25.1865L48.292 20.6182C48.4639 19.9812 48.0839 19.3229 47.4393 19.151Z" fill="black"/>
</svg>
