<svg width="60" height="60" viewBox="0 0 60 60" fill="none" xmlns="http://www.w3.org/2000/svg">
<path d="M35.6288 40.1882C35.6288 41.5346 34.5416 42.6264 33.2007 42.6264H17.1341C15.7932 42.6264 14.706 41.5346 14.706 40.1882V29.7077C14.706 28.3612 15.7932 27.2695 17.1341 27.2695H33.2007C34.5416 27.2695 35.6288 28.3612 35.6288 29.7077V40.1882Z" fill="#CCECFF"/>
<path d="M43.0254 30.6841H26.6375C25.3872 30.6841 24.3737 29.6664 24.3737 28.4109V19.6481C24.3737 18.3926 25.3872 17.3749 26.6375 17.3749H43.0242C44.2745 17.3749 45.288 18.3926 45.288 19.6481V28.4109C45.288 29.6664 44.2745 30.6841 43.0254 30.6841Z" fill="#CCECFF"/>
<path d="M34.8313 26.68C36.2891 26.68 37.4708 25.4934 37.4708 24.0296C37.4708 22.5658 36.2891 21.3792 34.8313 21.3792C33.3736 21.3792 32.1918 22.5658 32.1918 24.0296C32.1918 25.4934 33.3736 26.68 34.8313 26.68Z" fill="white"/>
<path d="M35.6287 33.8307C35.0283 33.8307 34.5414 34.3195 34.5414 34.9224V40.1881C34.5414 40.9305 33.9411 41.5334 33.2018 41.5334H17.134C16.3947 41.5334 15.7943 40.9305 15.7943 40.1881V33.2132H21.3137C21.9141 33.2132 22.4009 32.7244 22.4009 32.1215C22.4009 31.5187 21.9141 31.0298 21.3137 31.0298H15.7931V29.7076C15.7931 28.9653 16.3935 28.3612 17.1328 28.3612H20.1407C20.7411 28.3612 21.2279 27.8723 21.2279 27.2695C21.2279 26.6666 20.7411 26.1777 20.1407 26.1777H17.134C15.1963 26.1777 13.6187 27.7607 13.6187 29.7076V40.1881C13.6187 42.1338 15.1963 43.718 17.134 43.718H33.2005C35.1382 43.718 36.7159 42.1338 36.7159 40.1881V34.9236C36.7171 34.3207 36.229 33.8307 35.6287 33.8307Z" fill="black"/>
<path d="M19.4884 35.9778C18.888 35.9778 18.4012 36.4666 18.4012 37.0695C18.4012 37.6724 18.888 38.1612 19.4884 38.1612H22.6123C23.2127 38.1612 23.6996 37.6724 23.6996 37.0695C23.6996 36.4666 23.2127 35.9778 22.6123 35.9778H19.4884Z" fill="black"/>
<path d="M26.6387 31.7759H43.0242C44.8712 31.7759 46.3752 30.2657 46.3752 28.411V19.6481C46.3752 17.7922 44.8712 16.2832 43.0242 16.2832H26.6387C24.7916 16.2832 23.2877 17.7922 23.2877 19.6481V28.411C23.2865 30.2657 24.7904 31.7759 26.6387 31.7759ZM25.4621 19.6481C25.4621 18.9967 25.99 18.4666 26.6387 18.4666H43.0242C43.6729 18.4666 44.2008 18.9967 44.2008 19.6481V28.411C44.2008 29.0624 43.6729 29.5925 43.0242 29.5925H26.6387C25.99 29.5925 25.4621 29.0624 25.4621 28.411V19.6481Z" fill="black"/>
<path d="M34.8314 27.7717C36.8862 27.7717 38.5581 26.0929 38.5581 24.0295C38.5581 21.9662 36.8862 20.2886 34.8314 20.2886C32.7765 20.2886 31.1046 21.9674 31.1046 24.0295C31.1046 26.0929 32.7765 27.7717 34.8314 27.7717ZM34.8314 22.4708C35.6866 22.4708 36.3825 23.1695 36.3825 24.0295C36.3825 24.8896 35.6866 25.5883 34.8314 25.5883C33.9761 25.5883 33.2803 24.8883 33.2803 24.0295C33.2803 23.1707 33.9761 22.4708 34.8314 22.4708Z" fill="black"/>
<path d="M14.1744 21.8631V19.3812C14.1744 17.8904 15.3812 16.6774 16.8659 16.6774H19.3483L18.719 17.3094C18.2937 17.7352 18.2937 18.4266 18.719 18.8523C18.9316 19.0658 19.2094 19.1726 19.4885 19.1726C19.7675 19.1726 20.0454 19.0658 20.258 18.8523L22.7429 16.3572C22.947 16.1534 23.0618 15.8756 23.0618 15.5857C23.0618 15.2958 22.9446 15.018 22.7417 14.8142L20.258 12.3202C19.8328 11.8933 19.1442 11.8933 18.7202 12.3202C18.2962 12.7472 18.295 13.4374 18.7202 13.8632L19.3483 14.494H16.8659C14.1829 14.494 12 16.6859 12 19.3812V21.8643C12 22.4671 12.4868 22.956 13.0872 22.956C13.6876 22.956 14.1744 22.4671 14.1744 21.8631Z" fill="black"/>
<path d="M46.9116 37.0428C46.3112 37.0428 45.8244 37.5317 45.8244 38.1346V40.6164C45.8244 42.1072 44.6176 43.3202 43.1329 43.3202H40.6517L41.2798 42.6895C41.7051 42.2625 41.7051 41.571 41.2798 41.1453C40.8546 40.7195 40.166 40.7183 39.742 41.1453L37.2571 43.6405C36.8319 44.0674 36.8319 44.7589 37.2571 45.1846L39.742 47.6798C39.9546 47.8933 40.2325 48.0001 40.5115 48.0001C40.7906 48.0001 41.0684 47.8933 41.281 47.6798C41.7063 47.2528 41.7063 46.5614 41.281 46.1356L40.6529 45.5049H43.1341C45.8171 45.5049 48 43.3117 48 40.6176V38.1358C47.9988 37.5317 47.512 37.0428 46.9116 37.0428Z" fill="black"/>
</svg>
