<svg width="60" height="60" viewBox="0 0 60 60" fill="none" xmlns="http://www.w3.org/2000/svg">
<path d="M20.969 39.0098C16.5515 34.5741 13.9782 29.6282 13.2491 24.1733C12.8204 20.9667 14.0313 17.7536 16.3197 15.4652L17.3842 14.4007C18.9979 12.787 21.2993 12.7883 22.7187 14.2077L25.7453 17.2343C27.1647 18.6537 27.1647 20.9564 25.7453 22.3758L23.1901 24.931C22.7226 25.3985 22.5425 26.0991 22.7653 26.7221C24.5978 31.8376 28.1412 35.381 33.2567 37.2135C33.8797 37.4363 34.5803 37.2562 35.0478 36.7887L37.603 34.2335C39.0224 32.8141 41.3251 32.8141 42.7445 34.2335L45.7711 37.2601C47.1905 38.6795 47.1905 40.9822 45.7711 42.4016L44.5149 43.6578C42.2265 45.9462 39.0134 47.1584 35.8042 46.7297C30.3493 46.0006 25.4047 43.4273 20.969 39.0098Z" fill="#CCECFF"/>
<path d="M46.5948 36.4365L43.5695 33.4099C41.7551 31.5955 38.59 31.5968 36.7794 33.4099L34.2229 35.9664C34.0662 36.1218 33.8357 36.1866 33.6505 36.1166C28.8691 34.4045 25.577 31.1125 23.8636 26.331C23.7963 26.1432 23.8571 25.9127 24.0151 25.756L26.5703 23.2008C27.4769 22.293 27.9755 21.0872 27.9755 19.8051C27.9755 18.523 27.4756 17.3173 26.569 16.4107L23.5437 13.3841C22.619 12.4594 21.3939 11.9621 20.0949 12.0023C18.7985 12.0346 17.5436 12.5954 16.5606 13.5784L15.4961 14.6403C12.902 17.2357 11.6303 20.858 12.0939 24.3275C12.8541 30.0155 15.5621 35.2321 20.1428 39.8322L20.1454 39.8361C24.7455 44.4168 29.9621 47.1248 35.6488 47.885C36.1202 47.9485 36.5942 47.9796 37.0695 47.9796C40.0858 47.9796 43.0955 46.7246 45.3386 44.4829L46.5948 43.2253C47.5014 42.3175 48 41.1118 48 39.8296C48 38.5475 47.5014 37.3431 46.5948 36.4365ZM44.9462 41.5767L43.69 42.8342C41.6062 44.9193 38.7143 45.9411 35.9571 45.5759C30.7884 44.8843 26.0238 42.3991 21.7928 38.1875C17.5812 33.9564 15.0946 29.1906 14.403 24.0206C14.0352 21.2647 15.0596 18.374 17.1447 16.2903L18.2093 15.227C18.7675 14.6675 19.459 14.3502 20.1545 14.3334C20.8163 14.2907 21.4276 14.5665 21.8951 15.034L24.9204 18.0606C25.3866 18.5256 25.6443 19.1472 25.6443 19.8064C25.6443 20.4669 25.3866 21.0859 24.9204 21.5535L22.3652 24.1087C21.5713 24.9025 21.2967 26.0824 21.6671 27.1184C23.6266 32.5875 27.394 36.3549 32.8644 38.3144C33.8966 38.6822 35.079 38.4089 35.8716 37.6163L38.4281 35.0612C39.3605 34.1287 40.9884 34.1287 41.9209 35.0612L44.9462 38.0878C45.4124 38.5527 45.6702 39.1743 45.6702 39.8335C45.6702 40.4901 45.4124 41.1105 44.9462 41.5767Z" fill="black"/>
<path d="M44.1184 18.1201C42.6556 17.7863 41.9316 17.3675 41.9649 16.8742C42.0406 15.7614 43.9589 15.5285 45.0947 15.4883C45.1704 15.4906 45.2358 15.5239 45.2691 15.556C45.2978 15.5836 45.3471 15.6455 45.3471 15.7396C45.3471 16.3098 45.8095 16.7721 46.3797 16.7721C46.9499 16.7721 47.4122 16.3098 47.4122 15.7396C47.4122 15.1143 47.1541 14.5052 46.7043 14.0703C46.25 13.6321 45.642 13.3969 45.0236 13.4244C44.9892 13.4256 44.9593 13.429 44.9261 13.4302V12.9242C44.9261 12.3541 44.4637 11.8917 43.8935 11.8917C43.3233 11.8917 42.8609 12.3541 42.8609 12.9242V13.717C40.4803 14.34 39.9698 15.797 39.9055 16.7331C39.7357 19.2398 42.69 19.9121 43.6606 20.1336C45.0534 20.4502 45.845 20.8988 45.8324 21.3645C45.8014 22.5646 43.4265 22.7412 42.7003 22.7665C42.6016 22.7745 42.5385 22.7229 42.5087 22.6942C42.4743 22.6609 42.433 22.6024 42.433 22.5152C42.433 21.9451 41.9706 21.4839 41.4004 21.4839C40.8302 21.4839 40.3679 21.9462 40.3679 22.5164C40.3679 23.1497 40.6191 23.7405 41.0746 24.1799C41.5117 24.6021 42.0819 24.8315 42.6877 24.8315C42.7164 24.8315 42.7451 24.8315 42.7726 24.8304C42.8036 24.8292 42.83 24.8258 42.8609 24.8246V25.3294C42.8609 25.8996 43.3233 26.362 43.8935 26.362C44.4637 26.362 44.9261 25.8996 44.9261 25.3294V24.5413C47.5097 23.8656 47.8769 22.2101 47.8975 21.4196C47.9388 19.81 46.6676 18.6995 44.1184 18.1201Z" fill="black"/>
</svg>
