<svg width="60" height="60" viewBox="0 0 60 60" fill="none" xmlns="http://www.w3.org/2000/svg">
<path d="M13.0872 30C13.0872 33.7932 14.3436 37.2966 16.4577 40.1234L21.1208 35.4604C20.1544 33.8778 19.5866 32.0053 19.5866 30C19.5866 27.9946 20.1544 26.1221 21.1208 24.5396L16.4577 19.8765C14.3436 22.7033 13.0872 26.2067 13.0872 30Z" fill="#CCECFF"/>
<path d="M19.8765 16.4578L24.5396 21.1208C26.1221 20.1544 27.9946 19.5866 30 19.5866C32.0054 19.5866 33.8779 20.1544 35.4604 21.1208C36.8497 21.9906 38.0094 23.1504 38.8792 24.5396C39.8456 26.1222 40.4134 27.9947 40.4134 30C40.4134 32.0054 39.8456 33.8779 38.8792 35.4604L43.5423 40.1235C45.6564 37.2967 46.9128 33.7933 46.9128 30C46.9128 26.2067 45.6564 22.7034 43.5423 19.8765C42.5758 18.5718 41.4282 17.4242 40.1235 16.4578C37.2966 14.3437 33.7933 13.0873 30 13.0873C26.2067 13.0873 22.7034 14.3437 19.8765 16.4578Z" fill="#CCECFF"/>
<path d="M30 40.4255C27.9946 40.4255 26.1221 39.8577 24.5396 38.8792L19.8765 43.5422C22.7034 45.6563 26.2067 46.9127 30 46.9127C33.7933 46.9127 37.2966 45.6563 40.1235 43.5422L35.4604 38.8792C33.8779 39.8577 32.0054 40.4255 30 40.4255Z" fill="#CCECFF"/>
<path d="M29.9964 23.9296C29.396 23.9296 28.9091 24.4164 28.9091 25.0168V25.459C27.0101 26.0255 26.5897 27.259 26.5353 28.0611C26.435 29.5434 27.5175 30.5533 29.7511 31.0595C31.0208 31.3506 31.2999 31.6937 31.2975 31.7904C31.2781 32.5466 29.3525 32.6541 29.0807 32.6783C29.0577 32.0984 28.5805 31.6345 27.9946 31.6345C27.3942 31.6345 26.9074 32.1214 26.9074 32.7218C26.9074 33.3004 27.1369 33.8416 27.5525 34.2439C27.9173 34.5967 28.4042 34.7984 28.9103 34.8286V34.982C28.9103 35.5825 29.3972 36.0693 29.9976 36.0693C30.598 36.0693 31.0848 35.5825 31.0848 34.982V34.5423C33.147 33.925 33.455 32.5261 33.4732 31.8484C33.5094 30.418 32.4209 29.4407 30.2368 28.9406C28.7243 28.5975 28.7038 28.2471 28.7062 28.2097C28.7569 27.4716 30.4542 27.3532 30.9085 27.2795C30.9085 27.8799 31.3953 28.3667 31.9957 28.3667C32.5961 28.3667 33.083 27.8799 33.083 27.2795C33.083 26.7069 32.8474 26.1512 32.4354 25.7537C32.0658 25.3961 31.5934 25.1884 31.0848 25.1702V25.018C31.0824 24.4164 30.5968 23.9296 29.9964 23.9296Z" fill="black"/>
<path d="M22.0486 34.8938C21.1486 33.42 20.6738 31.7287 20.6738 30C20.6738 28.2713 21.1498 26.58 22.0486 25.1062C22.3107 24.6785 22.2443 24.1252 21.8891 23.7713L17.226 19.1082C17.0038 18.8847 16.686 18.7602 16.3804 18.7929C16.0663 18.8158 15.7764 18.9729 15.5879 19.2254C13.2407 22.3639 12 26.0895 12 30C12 33.9105 13.2407 37.6361 15.5867 40.7746C15.7752 41.0271 16.0651 41.1854 16.3792 41.2071C16.4046 41.2095 16.4311 41.2107 16.4565 41.2107C16.744 41.2107 17.0207 41.096 17.2248 40.8918L21.8879 36.2287C22.2443 35.8735 22.3107 35.3215 22.0486 34.8938ZM19.7702 35.2719L16.6111 38.431C15.0141 35.9062 14.1745 33.0153 14.1745 30C14.1745 26.9847 15.0141 24.0938 16.6123 21.569L19.7714 24.728C18.9366 26.3541 18.4993 28.1613 18.4993 30C18.4993 31.8386 18.9366 33.6459 19.7702 35.2719Z" fill="black"/>
<path d="M44.4157 19.2302C43.3864 17.8397 42.1603 16.6136 40.7746 15.5867C37.6373 13.2407 33.9105 12 30 12C26.0895 12 22.3627 13.2407 19.2254 15.5879C18.9729 15.7764 18.8146 16.0663 18.7929 16.3804C18.7699 16.6945 18.8847 17.0038 19.1082 17.2272L23.7713 21.8903C24.1264 22.2431 24.6797 22.3119 25.1062 22.0486C28.0514 20.251 31.9582 20.257 34.8829 22.0426C36.1369 22.8278 37.1722 23.8619 37.9514 25.1062C38.8514 26.58 39.3262 28.2713 39.3262 30C39.3262 31.7287 38.8502 33.42 37.9514 34.8938C37.6893 35.3215 37.7557 35.8748 38.1109 36.2287L42.774 40.8918C42.9781 41.096 43.2548 41.2107 43.5423 41.2107C43.5676 41.2107 43.5942 41.2095 43.6196 41.2071C43.9337 41.1842 44.2236 41.0271 44.4121 40.7746C46.7593 37.6361 48 33.9105 48 30C48 26.0895 46.7593 22.3639 44.4157 19.2302ZM43.3889 38.431L40.2298 35.2719C41.0633 33.6447 41.5007 31.8387 41.5007 30C41.5007 27.8714 40.9148 25.7875 39.8009 23.9634C38.8393 22.4279 37.5733 21.1619 36.027 20.1942C32.6468 18.1272 28.2362 17.9714 24.7268 19.7702L21.569 16.6123C24.0938 15.0141 26.9847 14.1745 30 14.1745C33.4381 14.1745 36.7131 15.2642 39.476 17.3311C40.6925 18.2323 41.7664 19.3063 42.6713 20.5277C44.7346 23.2856 45.8255 26.5619 45.8255 30C45.8255 33.0153 44.9859 35.9062 43.3889 38.431Z" fill="black"/>
<path d="M36.2287 38.1097C35.8736 37.7545 35.3178 37.6893 34.8878 37.9538C31.9607 39.7659 28.0381 39.7659 25.111 37.9538C24.6809 37.6905 24.1264 37.7557 23.7701 38.1097L19.107 42.7728C18.8835 42.9963 18.7687 43.3043 18.7917 43.6196C18.8146 43.9349 18.9717 44.2236 19.2242 44.4121C22.3627 46.7593 26.0895 48 30 48C33.9105 48 37.6373 46.7593 40.7746 44.4121C41.0271 44.2236 41.1854 43.9337 41.2071 43.6196C41.2301 43.3043 41.1153 42.995 40.8918 42.7728L36.2287 38.1097ZM30 45.8255C26.9847 45.8255 24.0938 44.9871 21.569 43.3877L24.7244 40.2322C27.9705 41.9126 32.0319 41.9126 35.2768 40.2322L38.4322 43.3877C35.9062 44.9859 33.0153 45.8255 30 45.8255Z" fill="black"/>
</svg>
