<svg width="20" height="20" viewBox="0 0 20 20" fill="none" xmlns="http://www.w3.org/2000/svg">
<path d="M15.0271 13.8477L18.5961 17.4166L17.4176 18.5951L13.8486 15.0262C12.5654 16.0528 10.938 16.667 9.16797 16.667C5.02797 16.667 1.66797 13.307 1.66797 9.16699C1.66797 5.02699 5.02797 1.66699 9.16797 1.66699C13.308 1.66699 16.668 5.02699 16.668 9.16699C16.668 10.937 16.0538 12.5644 15.0271 13.8477ZM13.3552 13.2293C14.3742 12.1792 15.0013 10.7467 15.0013 9.16699C15.0013 5.94407 12.3909 3.33366 9.16797 3.33366C5.94505 3.33366 3.33464 5.94407 3.33464 9.16699C3.33464 12.3899 5.94505 15.0003 9.16797 15.0003C10.7476 15.0003 12.1801 14.3732 13.2303 13.3542L13.3552 13.2293Z" fill="black"/>
</svg>
