<svg width="60" height="60" viewBox="0 0 60 60" fill="none" xmlns="http://www.w3.org/2000/svg">
<path d="M19.8686 39.1244H19.5809C17.1379 39.1244 15.156 37.1276 15.156 34.6632V33.0316C15.156 30.5711 17.134 28.5769 19.5744 28.5769H19.8737C20.8884 28.5769 21.7105 29.4057 21.7105 30.4287V37.2674C21.7105 38.293 20.8858 39.1244 19.8686 39.1244Z" fill="#CCECFF"/>
<path d="M40.5698 39.1244H40.2705C39.2558 39.1244 38.4337 38.2956 38.4337 37.2726V30.4287C38.4337 29.4057 39.2558 28.5769 40.2705 28.5769H40.5685C43.0089 28.5769 44.9869 30.5711 44.9869 33.0316V34.6697C44.9882 37.1301 43.0089 39.1244 40.5698 39.1244Z" fill="#CCECFF"/>
<path d="M32.6576 46.8344H31.6377C30.388 46.8344 29.3746 45.8127 29.3746 44.5527C29.3746 43.2927 30.388 42.271 31.6377 42.271H32.6576C33.9073 42.271 34.9207 43.2927 34.9207 44.5527C34.9207 45.8127 33.9073 46.8344 32.6576 46.8344Z" fill="#CCECFF"/>
<path d="M30.0721 12C21.2108 12 14 19.2686 14 28.2039V33.0315C14 33.5754 14 34.1193 14 34.6632C14 37.7659 16.5034 40.2898 19.5808 40.2898H19.8686C21.5216 40.2898 22.8677 38.934 22.8677 37.2686V30.4299C22.8677 28.7659 21.5242 27.4127 19.8737 27.4127H19.5744C18.3529 27.4127 17.2329 27.8219 16.3133 28.4965V28.2052C16.3133 20.5545 22.4849 14.3309 30.0721 14.3309C37.6592 14.3309 43.8309 20.5545 43.8309 28.2039V28.4953C42.9112 27.8219 41.7899 27.4114 40.5697 27.4114H40.2704C38.62 27.4114 37.2764 28.7646 37.2764 30.4286V37.2725C37.2764 38.9365 38.62 40.2898 40.2704 40.2898H40.4207C39.9789 42.0626 38.3965 43.3847 36.5019 43.3847H35.8597C35.3819 42.06 34.1334 41.1056 32.6563 41.1056H31.6365C29.751 41.1056 28.2174 42.6518 28.2174 44.5528C28.2174 46.4538 29.751 48 31.6365 48H32.6563C34.1347 48 35.3858 47.043 35.861 45.7157H36.5019C39.8402 45.7157 42.5567 43.1024 42.8175 39.8029C44.7724 38.9288 46.1429 36.9604 46.1429 34.6696C46.1429 34.1232 46.1429 33.578 46.1429 33.0315V28.2039C46.1441 19.2686 38.9334 12 30.0721 12ZM19.5744 29.7423H19.8737C20.25 29.7423 20.5544 30.0505 20.5544 30.4286V37.2673C20.5544 37.6481 20.2475 37.9588 19.8686 37.9588H19.5808C17.7788 37.9588 16.3133 36.48 16.3133 34.6632C16.3133 34.1193 16.3133 33.5754 16.3133 33.0315C16.3133 31.2173 17.7762 29.7423 19.5744 29.7423ZM32.6576 45.6691H31.6378C31.0264 45.6691 30.5319 45.1679 30.5319 44.5528C30.5319 43.9364 31.0277 43.4365 31.6378 43.4365H32.6576C33.269 43.4365 33.7635 43.9377 33.7635 44.5528C33.7635 45.1679 33.2677 45.6691 32.6576 45.6691ZM43.8309 34.6696C43.8309 36.4826 42.3679 37.9588 40.5697 37.9588H40.2704C39.8941 37.9588 39.5897 37.6506 39.5897 37.2725V30.4286C39.5897 30.0505 39.8941 29.7423 40.2704 29.7423H40.5684C42.3666 29.7423 43.8296 31.2186 43.8296 33.0315C43.8309 33.578 43.8309 34.1232 43.8309 34.6696Z" fill="black"/>
</svg>
