<svg width="32" height="32" viewBox="0 0 32 32" fill="none" xmlns="http://www.w3.org/2000/svg">
<path d="M5.6 32H26.4C29.4928 32 32 29.4928 32 26.4L32 5.6C32 2.50721 29.4928 0 26.4 0L5.6 0C2.50721 0 0 2.50721 0 5.6V26.4C0 29.4928 2.50721 32 5.6 32Z" fill="#00AADE"/>
<path d="M23.6 10.4C24.0773 10.1546 24.5004 9.81567 24.844 9.40335C25.1876 8.99103 25.4447 8.51378 25.6 8.00002C24.8 8.80002 23.1 9.06502 23.1 9.06502C22.5122 8.34274 21.6908 7.84818 20.7774 7.66661C19.8641 7.48505 18.916 7.62786 18.0966 8.07042C17.2772 8.51298 16.638 9.22756 16.289 10.0909C15.94 10.9543 15.9033 11.9124 16.185 12.8H16C14.3707 12.692 12.7818 12.2448 11.3353 11.4871C9.88885 10.7294 8.61656 9.67793 7.6 8.40002C7.6 8.40002 5.2 11.6 8.8 14C8.8 14 7.2 14 6.8 13.6C6.8 13.6 6.4 16 10 17.6C9.74882 17.7144 9.47601 17.7736 9.2 17.7736C8.92399 17.7736 8.65118 17.7144 8.4 17.6C8.4 19.145 10.01 20.4 12 20.4C12 21.505 9.315 22.4 6 22.4C11.2 26 23.6 25.2 24.4 11.6L26.4 9.60002L23.6 10.4Z" fill="white"/>
</svg>
