<svg width="60" height="60" viewBox="0 0 60 60" fill="none" xmlns="http://www.w3.org/2000/svg">
<path d="M32.8209 18.8763H23.3696C22.2924 18.8763 21.5486 17.7756 21.9461 16.7655L22.2411 16.0274L22.9849 14.1368C23.2157 13.554 23.78 13.1655 24.4083 13.1655H31.7822C32.4106 13.1655 32.9748 13.554 33.2057 14.1368L33.9495 16.0274L34.2444 16.7655C34.642 17.7756 33.8982 18.8763 32.8209 18.8763Z" fill="#CCECFF"/>
<path d="M40.7923 46.8345C43.9794 46.8345 46.5631 44.2256 46.5631 41.0072C46.5631 37.7889 43.9794 35.1799 40.7923 35.1799C37.6051 35.1799 35.0215 37.7889 35.0215 41.0072C35.0215 44.2256 37.6051 46.8345 40.7923 46.8345Z" fill="#CCECFF"/>
<path d="M31.5564 45.6691H18.3861C16.6882 45.6691 15.3083 44.2744 15.3083 42.5612V20.3007C15.3083 18.5875 16.6895 17.1928 18.3861 17.1928H20.7086C20.6791 17.7742 20.8176 18.3596 21.151 18.8568C21.6511 19.6014 22.4821 20.0469 23.3734 20.0469H32.8196C33.7109 20.0469 34.5419 19.6027 35.042 18.8568C35.3754 18.3609 35.5139 17.7755 35.4832 17.1928H37.8018C39.4997 17.1928 40.8795 18.5875 40.8795 20.3007V30.0777C40.8795 30.7213 41.3963 31.2432 42.0337 31.2432C42.6711 31.2432 43.1879 30.7213 43.1879 30.0777V20.3007C43.1879 17.3016 40.7718 14.8619 37.8018 14.8619H34.733L34.2764 13.7081C33.8673 12.6708 32.8889 12 31.7821 12H24.4096C23.3041 12 22.3257 12.6695 21.9166 13.7068L21.46 14.8619H18.3861C15.4161 14.8619 13 17.3016 13 20.3007V42.5612C13 45.5603 15.4161 48 18.3861 48H31.5564C32.1938 48 32.7106 47.4781 32.7106 46.8345C32.7106 46.1909 32.1938 45.6691 31.5564 45.6691ZM23.0233 17.1941L24.0608 14.5705C24.1185 14.4255 24.2557 14.3309 24.4096 14.3309H31.7821C31.9373 14.3309 32.0745 14.4242 32.131 14.5718L33.1684 17.1941C33.2325 17.3573 33.1723 17.4868 33.1299 17.5489C33.0876 17.6111 32.9914 17.716 32.8183 17.716H23.3721C23.199 17.716 23.1028 17.6111 23.0605 17.5489C23.0194 17.4855 22.9592 17.3573 23.0233 17.1941Z" fill="black"/>
<path d="M36.4565 29.3266C36.4565 28.683 35.9397 28.1611 35.3023 28.1611H26.6833C26.0459 28.1611 25.5291 28.683 25.5291 29.3266C25.5291 29.9702 26.0459 30.4921 26.6833 30.4921H35.3023C35.941 30.4921 36.4565 29.9702 36.4565 29.3266Z" fill="black"/>
<path d="M22.0575 28.1611H20.8892C20.2519 28.1611 19.7351 28.683 19.7351 29.3266C19.7351 29.9702 20.2519 30.4921 20.8892 30.4921H22.0588C22.6962 30.4921 23.213 29.9702 23.213 29.3266C23.213 28.683 22.6949 28.1611 22.0575 28.1611Z" fill="black"/>
<path d="M26.6833 35.2316C26.0459 35.2316 25.5291 35.7534 25.5291 36.397C25.5291 37.0406 26.0459 37.5625 26.6833 37.5625H30.9152C31.5526 37.5625 32.0694 37.0406 32.0694 36.397C32.0694 35.7534 31.5526 35.2316 30.9152 35.2316H26.6833Z" fill="black"/>
<path d="M22.0575 35.2316H20.8892C20.2519 35.2316 19.7351 35.7534 19.7351 36.397C19.7351 37.0406 20.2519 37.5625 20.8892 37.5625H22.0588C22.6962 37.5625 23.213 37.0406 23.213 36.397C23.213 35.7534 22.6949 35.2316 22.0575 35.2316Z" fill="black"/>
<path d="M41.9107 39.2033L40.1769 40.6135L39.8601 40.2043C39.4664 39.698 38.7419 39.61 38.2392 40.0062C37.7377 40.4038 37.6493 41.1367 38.043 41.643L39.0817 42.982C39.2715 43.2268 39.5524 43.3861 39.8588 43.421C39.9024 43.4262 39.946 43.4288 39.9909 43.4288C40.2538 43.4288 40.509 43.3394 40.7142 43.1711L43.3585 41.0202C43.8548 40.6161 43.9331 39.8832 43.5329 39.382C43.1328 38.8783 42.407 38.7993 41.9107 39.2033Z" fill="black"/>
<path d="M45.6899 36.0631C42.9904 33.3372 38.5969 33.3372 35.8961 36.0631C33.1967 38.789 33.1967 43.2268 35.8961 45.9527C37.2465 47.3163 39.0201 47.9975 40.7924 47.9975C42.5646 47.9975 44.3395 47.3163 45.6886 45.9527C48.3893 43.2255 48.3893 38.789 45.6899 36.0631ZM44.0574 44.3043C42.2569 46.1211 39.3278 46.1211 37.5273 44.3043C35.7281 42.4861 35.7281 39.5284 37.5273 37.7103C38.4276 36.8012 39.61 36.3467 40.7924 36.3467C41.9747 36.3467 43.1571 36.8012 44.0561 37.7103C45.8566 39.5284 45.8566 42.4861 44.0574 44.3043Z" fill="black"/>
</svg>
