<svg width="32" height="32" viewBox="0 0 32 32" fill="none" xmlns="http://www.w3.org/2000/svg">
<path d="M5.6 32H26.4C29.4928 32 32 29.4928 32 26.4L32 5.6C32 2.50721 29.4928 0 26.4 0L5.6 0C2.50721 0 0 2.50721 0 5.6V26.4C0 29.4928 2.50721 32 5.6 32Z" fill="url(#paint0_radial_296_715)"/>
<path d="M22 28H10C8.4087 28 6.88258 27.3679 5.75736 26.2426C4.63214 25.1174 4 23.5913 4 22V10C4 8.4087 4.63214 6.88258 5.75736 5.75736C6.88258 4.63214 8.4087 4 10 4H22C23.5913 4 25.1174 4.63214 26.2426 5.75736C27.3679 6.88258 28 8.4087 28 10V22C28 23.5913 27.3679 25.1174 26.2426 26.2426C25.1174 27.3679 23.5913 28 22 28ZM10 6.4C9.04563 6.40132 8.13072 6.78103 7.45588 7.45588C6.78103 8.13072 6.40132 9.04563 6.4 10V22C6.40132 22.9544 6.78103 23.8693 7.45588 24.5441C8.13072 25.219 9.04563 25.5987 10 25.6H22C22.9544 25.5987 23.8693 25.219 24.5441 24.5441C25.219 23.8693 25.5987 22.9544 25.6 22V10C25.5987 9.04563 25.219 8.13072 24.5441 7.45588C23.8693 6.78103 22.9544 6.40132 22 6.4H10Z" fill="white"/>
<path d="M16 22.8C14.655 22.8 13.3403 22.4012 12.2221 21.654C11.1038 20.9068 10.2322 19.8448 9.71757 18.6023C9.2029 17.3597 9.06823 15.9925 9.33061 14.6734C9.59299 13.3543 10.2406 12.1427 11.1916 11.1917C12.1426 10.2407 13.3543 9.59305 14.6733 9.33068C15.9924 9.0683 17.3597 9.20296 18.6022 9.71763C19.8447 10.2323 20.9068 11.1039 21.6539 12.2221C22.4011 13.3404 22.8 14.6551 22.8 16C22.7986 17.8031 22.0818 19.5319 20.8068 20.8069C19.5319 22.0818 17.803 22.7987 16 22.8ZM16 11.6C15.1297 11.6 14.279 11.8581 13.5554 12.3415C12.8319 12.825 12.2679 13.5122 11.9349 14.3162C11.6019 15.1202 11.5147 16.0049 11.6845 16.8584C11.8543 17.7119 12.2733 18.4959 12.8887 19.1113C13.504 19.7266 14.288 20.1457 15.1416 20.3155C15.9951 20.4852 16.8798 20.3981 17.6838 20.0651C18.4878 19.7321 19.1749 19.1681 19.6584 18.4445C20.1419 17.7209 20.4 16.8703 20.4 16C20.3986 14.8335 19.9346 13.7151 19.1098 12.8902C18.2849 12.0653 17.1665 11.6013 16 11.6Z" fill="white"/>
<path d="M22.8 10.8C23.4627 10.8 24 10.2628 24 9.60003C24 8.93728 23.4627 8.40002 22.8 8.40002C22.1372 8.40002 21.6 8.93728 21.6 9.60003C21.6 10.2628 22.1372 10.8 22.8 10.8Z" fill="white"/>
<defs>
<radialGradient id="paint0_radial_296_715" cx="0" cy="0" r="1" gradientUnits="userSpaceOnUse" gradientTransform="translate(-0.643748 31.35) rotate(180) scale(73.8975)">
<stop stop-color="#F9ED32"/>
<stop offset="0.36" stop-color="#EE2A7B"/>
<stop offset="0.44" stop-color="#D22A8A"/>
<stop offset="0.6" stop-color="#8B2AB2"/>
<stop offset="0.83" stop-color="#1B2AF0"/>
<stop offset="0.88" stop-color="#002AFF"/>
</radialGradient>
</defs>
</svg>
